<svg xmlns="http://www.w3.org/2000/svg" width="512" height="512" viewBox="0 0 512 512">
  <defs>
    <linearGradient id="bg" x1="0" y1="0" x2="1" y2="1">
      <stop offset="0" stop-color="#18181b"/>
      <stop offset="1" stop-color="#09090b"/>
    </linearGradient>
    <linearGradient id="body" x1="0" y1="0" x2="0" y2="1">
      <stop offset="0" stop-color="#34d399"/>
      <stop offset="1" stop-color="#059669"/>
    </linearGradient>
  </defs>
  <rect width="512" height="512" rx="112" fill="url(#bg)"/>
  <!-- monster body -->
  <path d="M136 196c0-24 20-44 44-44h152c24 0 44 20 44 44v120c0 20-16 36-36 36h-8l-16 28-16-28h-40l-16 28-16-28h-40l-16 28-16-28h-4c-20 0-44-16-44-36z" fill="url(#body)"/>
  <!-- eyes -->
  <circle cx="212" cy="236" r="30" fill="#09090b"/>
  <circle cx="300" cy="236" r="30" fill="#09090b"/>
  <circle cx="222" cy="228" r="10" fill="#ffffff"/>
  <circle cx="310" cy="228" r="10" fill="#ffffff"/>
  <!-- mouth -->
  <path d="M206 296c14 18 86 18 100 0" stroke="#09090b" stroke-width="12" stroke-linecap="round" fill="none"/>
</svg>
